<?xml version="1.0" encoding="utf-8"?>
<!-- Generator: Adobe Illustrator 15.1.0, SVG Export Plug-In . SVG Version: 6.00 Build 0)  -->
<!DOCTYPE svg PUBLIC "-//W3C//DTD SVG 1.1//EN" "http://www.w3.org/Graphics/SVG/1.1/DTD/svg11.dtd">
<svg version="1.1" id="Ebene_1" xmlns="http://www.w3.org/2000/svg" xmlns:xlink="http://www.w3.org/1999/xlink" x="0px" y="0px"
	 width="225px" height="905px" viewBox="0 0 225 905" enable-background="new 0 0 225 905" xml:space="preserve">
<g>
	<g>
		<path fill="#655E5F" d="M19.234,712.462h4.022l8.047,3.688l1.341,0.268l8.382,0.291l6.035,3.799l0.157,2.347l2.524-3.688
			l3.017-1.221c0,0,2.012-1.795,4.023-1.795s5.029-0.839,5.029-0.839l8.717-7.879c0,0,0.67-3.521,2.011-3.688
			c1.341-0.166,13.075-4.357,13.075-4.357s4.694,1.119,5.029-0.279c0.335-1.396,0.288-5.588,0.288-5.588l2.394-4.525l0.262-2.683
			l-2.608-4.358l2.912-6.371c0,0,2.788-8.715,5.805-10.393c3.018-1.676,7.041-3.094,11.399-1.676
			c4.357,1.418,7.711,3.354,8.717,7.711s0.288,8.382,0.288,10.059c0,1.676,1.723,2.179,1.723,2.179s0.336,1.509-2.011,1.844
			c-2.348,0.335-2.012,4.022-2.012,4.022l2.012,3.854v3.689v1.678l10.393,3.855l6.705,3.353l5.364,7.878l3.688,7.879l3.018,1.006
			l0.094,4.526l2.924,0.006l5.364,4.521l3.017,6.033l4.359,1.174l7.04,9.556l0.238,4.357l2.778,1.341l0.129,4.694l4.565,3.018
			l2.682,3.017l-1.006,6.035l-0.67,2.347l-4.359,0.081l-7.039-8.463v-4.023l-20.451-11.9l-9.388-9.556l-6.034-6.369l1.676,4.692
			l5.029,6.37l-1.342,6.706l-5.028,5.699l2.682,3.353l0.671,5.364l5.364,4.358l2.347,7.041l3.688,11.733l6.705,11.063l4.693,4.358
			l0.67,2.683l2.013,1.341l1.341,3.185l1.341,1.845l1.006,3.185c0,0,3.018-1.499,3.018,0.089c0,1.587,4.693,11.512,4.693,11.512
			l8.696,8.012l4.379,8.885c0,0,4.023,0.502,5.364,2.514c1.341,2.013,5.028,9.388,5.028,9.388l7.712,4.861l4.357,0.25l4.358-4.105
			l4.358,1.341l2.348,3.067l-4.023,6.99l-10.729,3.353l-3.688,0.283l-7.375,4.41l-6.035,1.342l-3.017-8.047l-2.683-7.041
			l-5.364,2.348l-13.745-17.099l-9.388-13.409l-2.347,2.346l-11.063,1.677l-10.729-2.012l-5.363-3.353l-0.337-6l0.337-8.08
			l-2.013-2.683l-3.017,14.751l-4.359,12.908l-4.693,12.907l-4.358,13.41l-3.688,7.376l-4.023,1.006l1.341,2.347
			c0,0-0.67,1.676-0.335,3.353s6.705,10.393,6.705,10.393l0.336,3.688l-6.37,2.516l-7.376-3.186l-7.376-9.723l-2.011-1.341
			l-5.364-5.364l-1.006-3.855l2.347-2.515l4.693-6.035l2.012-4.86l3.353-9.556l3.688-11.733l2.682-8.046l1.342-2.013l-0.67-3.854
			l5.363-3.354l-0.67-6.201l-2.347-6.37l-5.029-2.515l-2.347-10.058l-2.012-5.532l0.336,6.705l-2.013,3.856l-2.682-1.486
			l-1.006-9.075l-4.023-2.011l-4.357-3.688l-2.683-3.688l1.342-1.341l7.039,4.692l0.336-4.692l-3.018-2.18l-2.347-3.185v-4.024
			l3.018-4.357l3.353-3.018l-2.012-3.855l4.358-3.855l-4.023-4.022l-1.676-5.532l-0.336-8.382l-2.346-6.705l-4.024-2.514
			l-8.716,4.19l-8.382,1.843l-11.399-0.167l-8.381-6.538l-4.693-6.034l-1.677-2.514l-7.04,2.178l-1.677-3.687l-1.676-1.006
			l-2.682-2.347l1.341-1.844l3.017-2.18L19.234,712.462z"/>
		<path fill="none" stroke="#655E5F" stroke-width="0.591" d="M19.234,712.462h4.022l8.047,3.688l1.341,0.268l8.382,0.291
			l6.035,3.799l0.157,2.347l2.524-3.688l3.017-1.221c0,0,2.012-1.795,4.023-1.795s5.029-0.839,5.029-0.839l8.717-7.879
			c0,0,0.67-3.521,2.011-3.688c1.341-0.166,13.075-4.357,13.075-4.357s4.694,1.119,5.029-0.279c0.335-1.396,0.288-5.588,0.288-5.588
			l2.394-4.525l0.262-2.683l-2.608-4.358l2.912-6.371c0,0,2.788-8.715,5.805-10.393c3.018-1.676,7.041-3.094,11.399-1.676
			c4.357,1.418,7.711,3.354,8.717,7.711s0.288,8.382,0.288,10.059c0,1.676,1.723,2.179,1.723,2.179s0.336,1.509-2.011,1.844
			c-2.348,0.335-2.012,4.022-2.012,4.022l2.012,3.854v3.689v1.678l10.393,3.855l6.705,3.353l5.364,7.878l3.688,7.879l3.018,1.006
			l0.094,4.526l2.924,0.006l5.364,4.521l3.017,6.033l4.359,1.174l7.04,9.556l0.238,4.357l2.778,1.341l0.129,4.694l4.565,3.018
			l2.682,3.017l-1.006,6.035l-0.67,2.347l-4.359,0.081l-7.039-8.463v-4.023l-20.451-11.9l-9.388-9.556l-6.034-6.369l1.676,4.692
			l5.029,6.37l-1.342,6.706l-5.028,5.699l2.682,3.353l0.671,5.364l5.364,4.358l2.347,7.041l3.688,11.733l6.705,11.063l4.693,4.358
			l0.67,2.683l2.013,1.341l1.341,3.185l1.341,1.845l1.006,3.185c0,0,3.018-1.499,3.018,0.089c0,1.587,4.693,11.512,4.693,11.512
			l8.696,8.012l4.379,8.885c0,0,4.023,0.502,5.364,2.514c1.341,2.013,5.028,9.388,5.028,9.388l7.712,4.861l4.357,0.25l4.358-4.105
			l4.358,1.341l2.348,3.067l-4.023,6.99l-10.729,3.353l-3.688,0.283l-7.375,4.41l-6.035,1.342l-3.017-8.047l-2.683-7.041
			l-5.364,2.348l-13.745-17.099l-9.388-13.409l-2.347,2.346l-11.063,1.677l-10.729-2.012l-5.363-3.353l-0.337-6l0.337-8.08
			l-2.013-2.683l-3.017,14.751l-4.359,12.908l-4.693,12.907l-4.358,13.41l-3.688,7.376l-4.023,1.006l1.341,2.347
			c0,0-0.67,1.676-0.335,3.353s6.705,10.393,6.705,10.393l0.336,3.688l-6.37,2.516l-7.376-3.186l-7.376-9.723l-2.011-1.341
			l-5.364-5.364l-1.006-3.855l2.347-2.515l4.693-6.035l2.012-4.86l3.353-9.556l3.688-11.733l2.682-8.046l1.342-2.013l-0.67-3.854
			l5.363-3.354l-0.67-6.201l-2.347-6.37l-5.029-2.515l-2.347-10.058l-2.012-5.532l0.336,6.705l-2.013,3.856l-2.682-1.486
			l-1.006-9.075l-4.023-2.011l-4.357-3.688l-2.683-3.688l1.342-1.341l7.039,4.692l0.336-4.692l-3.018-2.18l-2.347-3.185v-4.024
			l3.018-4.357l3.353-3.018l-2.012-3.855l4.358-3.855l-4.023-4.022l-1.676-5.532l-0.336-8.382l-2.346-6.705l-4.024-2.514
			l-8.716,4.19l-8.382,1.843l-11.399-0.167l-8.381-6.538l-4.693-6.034l-1.677-2.514l-7.04,2.178l-1.677-3.687l-1.676-1.006
			l-2.682-2.347l1.341-1.844l3.017-2.18L19.234,712.462z"/>
		<path fill="#655E5F" d="M21.226,712.721h-7.816l3.908-46.936l-7.312-2.386L0,764.687l7.543,0.028c0,0,6.704-48.641,6.704-47.803
			s6.979,0,6.979,0V712.721z"/>
		<path fill="none" stroke="#655E5F" stroke-width="0.591" d="M21.226,712.721h-7.816l3.908-46.936l-7.312-2.386L0,764.687
			l7.543,0.028c0,0,6.704-48.641,6.704-47.803s6.979,0,6.979,0V712.721z"/>
		<line fill="none" stroke="#655E5F" stroke-width="2.133" x1="102.007" y1="665.004" x2="71.023" y2="0"/>
		<line fill="none" stroke="#655E5F" stroke-width="2.133" x1="110.007" y1="666.004" x2="124.062" y2="0"/>
	</g>
</g>
</svg>
