<?xml version="1.0" encoding="utf-8"?>
<!-- Generator: Adobe Illustrator 15.1.0, SVG Export Plug-In . SVG Version: 6.00 Build 0)  -->
<!DOCTYPE svg PUBLIC "-//W3C//DTD SVG 1.1//EN" "http://www.w3.org/Graphics/SVG/1.1/DTD/svg11.dtd">
<svg version="1.1" id="Ebene_1" xmlns="http://www.w3.org/2000/svg" xmlns:xlink="http://www.w3.org/1999/xlink" x="0px" y="0px"
	 width="180px" height="262px" viewBox="0 0 180 262" enable-background="new 0 0 180 262" xml:space="preserve">
<path fill="#655E60" d="M84.786,1.24h4.081l2.719,2.72l6.801-1.395l4.08,4.568l0.179,12.694l-4.259,1.814v5.893l-4.549,8.16
	l-6.785,4.081l-2.267,2.266l-2.72,4.081l-0.199,2.266l-0.238,7.254l-0.24,12.24l-0.24,1.813l-2.709,3.627l1.359,7.254l-1.613,3.174
	l-2.92,0.107l5.439,33.439l4.081,0.038l0.907,4.948l0.452,5.44l2.791,5.894v5.893v5.44l56.597,91.573l26.747-7.707l1.813,3.626
	l-3.175,1.813l8.161,7.707l-5.893,4.08l-5.895,0.197l-3.814,3.883l-10.691,3.174l-5.44,0.229l-7.254,3.852l-6.8,1.812L122.414,261
	l-6.348-1.36l3.626-10.427h-2.719l-1.36-2.72c0,0,8.16-4.08,7.707-4.08s17.68-4.08,17.68-4.08l-54.4-88.854l-2.266,0.454
	l-3.629-2.721l-2.719-5.44l-3-6.346l1.186-4.305l-5.439-3.855l-2.719-5.895l-6.348-8.159l-4.532-9.521l-0.218-9.066l-0.238-3.174
	L53.053,91l-0.029,5.44l-3.596,2.719l-0.146,2.721l-3.027,1.359l-0.1,4.861l-8.061,2.393l8.16,37.173l2.266,14.055l0.454,13.599
	l0.454,14.961l-3.174,19.04l-1.814,4.986l4.988,8.613l0.905,5.894l3.173,6.348l3.628,3.625l4.986,2.267l4.986,1.813l1.36,2.721
	l-4.533,4.533l-12.694,1.814l-4.985-0.908l-5.44-1.359h-6.347l-5.894-4.986h-4.081v-8.614l-1.812,1.813h-6.348h-4.984l-1.814-34.906
	l-2.721-24.027l-0.238-16.319l-0.24-20.854l-1.787-15.866l-0.238-12.693L0.92,100.521L5,87.373l4.078-5.44l4.081-5.893l-1.812-5.894
	l2.266-2.267h3.627l0.453-4.986l3.174-2.267L25.854,57l5.439-9.521l2.721-2.266L30.84,37.96l0.908-3.174l1.812-4.533h1.359
	l1.36-3.626h11.786l8.161,1.359l5.894,0.454h2.72l0.453-3.627L70.732,23l-4.078-5.44l2.719-8.615l6.348-5.439L80.253,1L84.786,1.24z
	"/>
</svg>
