<?xml version="1.0" encoding="utf-8"?>
<!-- Generator: Adobe Illustrator 15.1.0, SVG Export Plug-In . SVG Version: 6.00 Build 0)  -->
<!DOCTYPE svg PUBLIC "-//W3C//DTD SVG 1.1//EN" "http://www.w3.org/Graphics/SVG/1.1/DTD/svg11.dtd">
<svg version="1.1" id="Ebene_1" xmlns="http://www.w3.org/2000/svg" xmlns:xlink="http://www.w3.org/1999/xlink" x="0px" y="0px"
	 width="322px" height="132px" viewBox="0 0 322 132" enable-background="new 0 0 322 132" xml:space="preserve">
<g>
	<defs>
		<rect id="SVGID_1_" x="1" y="0.998" width="320" height="130.004"/>
	</defs>
	<clipPath id="SVGID_2_">
		<use xlink:href="#SVGID_1_"  overflow="visible"/>
	</clipPath>
	<path clip-path="url(#SVGID_2_)" fill="#655E5F" d="M264.021,125.676c0-2.07,0.834-2.588,5.212-2.588
		c4.654,0,5.171,0.637,5.171,2.588c0,1.871-0.517,2.588-5.172,2.588C264.575,128.264,264.02,127.547,264.021,125.676
		L264.021,125.676z M268.953,114.463c-4.139,0-4.577-0.916-4.577-4.615c0-3.662,0.438-4.695,4.577-4.695
		c4.138,0,4.615,1.033,4.615,4.695C273.568,113.547,273.091,114.463,268.953,114.463 M260.404,126.152
		c0,3.461,1.473,4.85,8.747,4.85c6.484,0,9.066-1.15,9.066-5.525c0-3.818-1.63-5.248-8.271-5.248h-1.593
		c-1.83,0-2.268-0.598-2.268-1.594c0-1.035,0.478-1.633,2.308-1.633h1.434c5.489,0,7.515-1.625,7.515-7.115
		c0-4.299-0.756-6.445-4.85-7.16l1.075-3.734h-3.58l-0.916,3.539c-0.519-0.039-0.955,0-1.354,0
		c-5.686,0.158-7.075,2.264-7.075,7.355c0,4.576,1.946,6.322,3.852,6.719v0.08c-1.07,0.277-1.864,1.314-1.864,2.826
		c0,1.828,1.23,2.504,1.626,2.623v0.041C263.702,122.254,260.404,122.65,260.404,126.152 M243.145,124.043h4.092v-16.705
		c0.635-0.516,2.346-1.51,4.971-1.51c1.034,0,1.948,0.119,1.948,0.119l0.16-3.377c0,0-0.955-0.158-1.949-0.158
		c-2.863,0-4.972,1.549-5.646,2.064l-0.478-1.668h-3.098V124.043z M217.215,115.297c0,5.529,0.715,9.143,6.358,9.143
		c3.144,0,5.891-1.35,6.646-1.629l0.397,1.232h3.138v-21.234h-4.013v17.457c-0.755,0.283-2.626,0.838-4.575,0.838
		c-2.865,0-3.939-0.676-3.939-6.004v-12.291h-4.012V115.297z M195.534,120.984v-14.322c0.756-0.318,2.547-0.955,4.577-0.955
		c2.865,0,3.939,0.717,3.939,6.645v2.705c0,5.41-1.034,6.088-4.935,6.088C198.002,121.145,196.49,121.064,195.534,120.984
		 M191.562,124.004c0,0,4.688,0.436,7.832,0.436c6.801,0,8.668-1.787,8.668-9.383v-3.223c0-7.039-1.47-9.422-6.399-9.422
		c-2.825,0-5.293,1.031-6.089,1.311v-7.475h-4.012V124.004z M176.768,124.043h4.052v-21.234h-4.052V124.043z M178.794,100.061
		c2.104,0,2.104-0.277,2.104-1.668c0-1.51,0-1.787-2.104-1.787c-2.105,0-2.145,0.277-2.145,1.787
		C176.649,99.783,176.688,100.061,178.794,100.061 M155.089,112.633c0-6.049,1.273-7.164,4.775-7.164
		c3.144,0,4.257,0.994,4.257,5.73c0,0.438,0,0.916-0.04,1.434H155.089z M155.208,115.174h12.408c0,0,0.159-1.51,0.159-3.336
		c0-6.369-1.51-9.426-7.911-9.426c-6.603,0-8.628,2.979-8.628,11.016c0,8.312,2.264,11.012,8.548,11.012
		c4.456,0,7.595-0.951,7.595-0.951l-0.159-3.061c0,0-2.899,0.717-6.838,0.717C156.76,121.145,155.248,119.949,155.208,115.174
		 M135.487,124.043h4.092v-16.705c0.636-0.516,2.346-1.51,4.971-1.51c1.033,0,1.948,0.119,1.948,0.119l0.159-3.377
		c0,0-0.954-0.158-1.948-0.158c-2.863,0-4.971,1.549-5.646,2.064l-0.477-1.668h-3.099V124.043z M117.511,124.043h4.052v-16.227
		h6.045v-3.178h-6.045v-1.75c0-3.066,1.113-3.742,3.221-3.742c1.711,0,3.46,0.438,3.46,0.438l0.2-3.1c0,0-2.348-0.635-4.933-0.635
		c-4.015,0-6,2.303-6,6.998v1.791h-2.188v3.178h2.188V124.043z"/>
	<path clip-path="url(#SVGID_2_)" fill="#655E5F" d="M199.651,75.842h4.011v-9.744h2.547l5.051,7.357
		c1.193,1.752,2.188,2.785,4.136,2.785c1.312,0,2.386-0.398,2.386-0.398l-0.08-3.262c-0.038,0.006-0.396,0.045-0.795,0.045
		c-0.915,0-1.511-0.158-2.108-0.994l-5.051-7.082l7.518-9.939h-4.613l-6.363,8.471h-2.626V48.047h-4.011V75.842z M177.335,64.432
		c0-6.049,1.273-7.164,4.775-7.164c3.144,0,4.258,0.996,4.258,5.731c0,0.438,0,0.916-0.04,1.432H177.335z M177.454,66.974h12.41
		c0,0,0.158-1.51,0.158-3.337c0-6.368-1.51-9.426-7.912-9.426c-6.602,0-8.628,2.978-8.628,11.015c0,8.313,2.265,11.014,8.549,11.014
		c4.456,0,7.594-0.955,7.594-0.955l-0.159-3.059c0,0-2.899,0.717-6.839,0.717C179.007,72.943,177.494,71.75,177.454,66.974
		 M148.269,75.842h3.972v-17.38c0.796-0.358,2.627-0.955,4.576-0.955c2.945,0,3.939,0.994,3.939,6.045v12.289h4.013V63.314
		c0-6.601-1.47-9.103-6.399-9.103c-2.905,0-5.254,0.994-6.089,1.312v-7.476h-4.012V75.842z M128.026,69.086
		c0,5.207,1.071,7.154,5.323,7.154c2.664,0,5.25-0.637,5.25-0.637l-0.119-3.059c0,0-2.147,0.398-3.978,0.398
		c-1.79,0-2.426-0.596-2.426-3.74V57.747h6.005V54.61h-6.005v-4.176h-2.86l-0.874,4.176h-3.102v3.137h2.785V69.086z M108.974,72.943
		c-4.18,0-4.616-1.154-4.616-7.717c0-6.604,0.437-7.719,4.616-7.719c4.217,0,4.655,1.115,4.655,7.719
		C113.629,71.789,113.19,72.943,108.974,72.943 M108.974,76.24c7.316,0,8.628-2.701,8.628-11.014c0-8.314-1.312-11.015-8.628-11.015
		c-7.238,0-8.589,2.701-8.589,11.015C100.385,73.539,101.735,76.24,108.974,76.24 M86.227,75.842h4.052V54.609h-4.052V75.842z
		 M88.253,51.86c2.104,0,2.104-0.278,2.104-1.668c0-1.51,0-1.787-2.104-1.787c-2.105,0-2.146,0.277-2.146,1.787
		C86.107,51.582,86.147,51.86,88.253,51.86 M69.961,75.842h4.052V48.047h-4.052V75.842z M47.605,72.785V58.463
		c0.756-0.319,2.546-0.956,4.576-0.956c2.865,0,3.939,0.716,3.939,6.644v2.706c0,5.411-1.035,6.086-4.935,6.086
		C50.072,72.943,48.561,72.863,47.605,72.785 M43.634,75.803c0,0,4.688,0.438,7.832,0.438c6.8,0,8.668-1.787,8.668-9.383v-3.223
		c0-7.039-1.471-9.423-6.4-9.423c-2.825,0-5.292,1.033-6.088,1.312v-7.476h-4.012V75.803z M28.044,75.842h4.052V54.609h-4.052
		V75.842z M30.069,51.86c2.105,0,2.105-0.278,2.105-1.668c0-1.51,0-1.787-2.105-1.787s-2.146,0.277-2.146,1.787
		C27.924,51.582,27.964,51.86,30.069,51.86 M4.972,72.785V58.463c0.757-0.319,2.547-0.956,4.576-0.956
		c2.865,0,3.94,0.716,3.94,6.644v2.706c0,5.411-1.034,6.086-4.936,6.086C7.439,72.943,5.927,72.863,4.972,72.785 M1,75.803
		c0,0,4.688,0.438,7.832,0.438c6.801,0,8.668-1.787,8.668-9.383v-3.223c0-7.039-1.469-9.423-6.4-9.423
		c-2.824,0-5.292,1.033-6.088,1.312v-7.476H1V75.803z"/>
	<path clip-path="url(#SVGID_2_)" fill="#655E5F" d="M306.17,28.355c0,0,3.256,0.477,6.958,0.477c6.48,0,7.872-1.788,7.872-6.001
		c0-3.302-0.517-4.655-3.933-5.729l-4.775-1.512c-2.27-0.677-2.429-1.035-2.429-2.786c0-2.069,0.597-2.744,4.656-2.744
		c2.627,0,5.367,0.357,5.367,0.357l0.08-3.178c0,0-3.059-0.437-6.242-0.437c-5.887,0-7.754,1.47-7.754,5.803
		c0,3.421,0.477,4.615,3.654,5.688l4.935,1.631c2.309,0.756,2.508,1.114,2.508,2.865c0,2.029-0.478,2.745-4.775,2.745
		c-3.024,0-6.043-0.318-6.043-0.318L306.17,28.355z M287.397,21.678c0,5.209,1.073,7.155,5.326,7.155
		c2.663,0,5.249-0.636,5.249-0.636l-0.119-3.059c0,0-2.148,0.398-3.977,0.398c-1.79,0-2.428-0.596-2.428-3.739V10.339h6.006V7.202
		h-6.006V3.026h-2.859l-0.874,4.176h-3.101v3.137h2.782V21.678z M264.169,4.373c1.987,0,2.027-0.278,2.027-1.668
		c0-1.429-0.04-1.707-2.026-1.707c-2.025,0-2.065,0.278-2.065,1.707C262.104,4.095,262.145,4.373,264.169,4.373L264.169,4.373z
		 M271.965,4.373c2.025,0,2.025-0.278,2.025-1.668c0-1.429,0-1.707-2.025-1.707c-1.986,0-2.026,0.278-2.026,1.707
		C269.938,4.095,269.979,4.373,271.965,4.373 M263.174,22.19v-0.397c0-2.466,1.074-3.42,3.819-3.42c1.91,0,3.423,0.239,4.179,0.398
		v6.085c-0.756,0.322-2.308,0.88-4.179,0.88c-2.824,0-3.819-1.035-3.819-3.542V22.19z M259.241,22.631
		c0,4.653,2.581,6.202,6.161,6.202c3.024,0,5.45-1.231,6.205-1.549l0.398,1.151h3.139V14.757c0-5.491-1.073-7.954-7.992-7.954
		c-2.745,0-6.204,0.397-6.204,0.397v3.178c0.597-0.04,2.861-0.278,5.488-0.278c4.179,0,4.656,0.995,4.656,4.458v1.71
		c-1.114-0.119-2.826-0.397-5.135-0.397c-5.01,0-6.717,2.024-6.717,6.08V22.631z M241.98,21.678c0,5.209,1.072,7.155,5.323,7.155
		c2.666,0,5.251-0.636,5.251-0.636l-0.119-3.059c0,0-2.148,0.398-3.978,0.398c-1.79,0-2.426-0.596-2.426-3.739V10.339h6.005V7.202
		h-6.005V3.026h-2.859l-0.875,4.176h-3.101v3.137h2.783V21.678z M224.721,28.435h4.052V7.202h-4.052V28.435z M226.746,4.453
		c2.105,0,2.105-0.278,2.105-1.668c0-1.509,0-1.787-2.105-1.787c-2.104,0-2.145,0.278-2.145,1.787
		C224.602,4.174,224.642,4.453,226.746,4.453 M199.665,28.355c0,0,3.257,0.477,6.957,0.477c6.482,0,7.873-1.788,7.873-6.001
		c0-3.302-0.517-4.655-3.932-5.729l-4.776-1.512c-2.27-0.677-2.428-1.035-2.428-2.786c0-2.069,0.597-2.744,4.655-2.744
		c2.628,0,5.368,0.357,5.368,0.357l0.08-3.178c0,0-3.06-0.437-6.243-0.437c-5.887,0-7.753,1.47-7.753,5.803
		c0,3.421,0.477,4.615,3.654,5.688l4.934,1.631c2.309,0.756,2.509,1.114,2.509,2.865c0,2.029-0.479,2.745-4.776,2.745
		c-3.023,0-6.043-0.318-6.043-0.318L199.665,28.355z M180.655,28.435h4.092V11.73c0.635-0.517,2.347-1.511,4.971-1.511
		c1.033,0,1.948,0.119,1.948,0.119l0.16-3.376c0,0-0.954-0.159-1.949-0.159c-2.863,0-4.971,1.549-5.647,2.065l-0.476-1.667h-3.099
		V28.435z M158.339,17.025c0-6.049,1.273-7.164,4.774-7.164c3.144,0,4.259,0.995,4.259,5.731c0,0.438,0,0.916-0.04,1.432H158.339z
		 M158.459,19.566h12.409c0,0,0.158-1.509,0.158-3.336c0-6.368-1.51-9.426-7.913-9.426c-6.601,0-8.627,2.978-8.627,11.016
		c0,8.312,2.265,11.013,8.547,11.013c4.458,0,7.596-0.954,7.596-0.954l-0.159-3.06c0,0-2.899,0.717-6.838,0.717
		C160.011,25.536,158.498,24.343,158.459,19.566 M135.195,28.435h5.409l7.119-21.233h-3.977l-3.978,11.61
		c-1.473,4.375-1.75,7.277-1.75,7.277h-0.199c0,0-0.317-2.902-1.79-7.237l-3.977-11.649h-3.978L135.195,28.435z M114.836,28.435
		h4.051V7.202h-4.051V28.435z M116.861,4.453c2.106,0,2.106-0.278,2.106-1.668c0-1.509,0-1.787-2.106-1.787
		c-2.105,0-2.146,0.278-2.146,1.787C114.716,4.174,114.756,4.453,116.861,4.453 M88.389,28.435h3.973V11.016
		c0.755-0.319,2.626-0.915,4.576-0.915c2.905,0,3.938,0.794,3.938,6.085v12.25h4.013V15.906c0-5.885-0.914-9.103-6.319-9.103
		c-3.104,0-5.931,1.312-6.686,1.668l-0.397-1.27h-3.098V28.435z M61.266,19.69c0,5.528,0.715,9.143,6.359,9.143
		c3.144,0,5.89-1.35,6.645-1.628l0.397,1.231h3.138V7.202h-4.012v17.455c-0.756,0.283-2.627,0.84-4.576,0.84
		c-2.864,0-3.939-0.677-3.939-6.006V7.202h-4.012V19.69z"/>
</g>
</svg>
