<?xml version="1.0" encoding="utf-8"?>
<!-- Generator: Adobe Illustrator 15.1.0, SVG Export Plug-In . SVG Version: 6.00 Build 0)  -->
<!DOCTYPE svg PUBLIC "-//W3C//DTD SVG 1.1//EN" "http://www.w3.org/Graphics/SVG/1.1/DTD/svg11.dtd">
<svg version="1.1" id="Ebene_1" xmlns="http://www.w3.org/2000/svg" xmlns:xlink="http://www.w3.org/1999/xlink" x="0px" y="0px"
	 width="1540px" height="80px" viewBox="0 0 1540 80" enable-background="new 0 0 1540 80" xml:space="preserve">
<g>
	<path fill="#FFFFFF" d="M1475.359,25.312c-3.373,3.373-5.232,7.865-5.232,12.648c0,4.781,1.859,9.275,5.232,12.646
		c3.369,3.37,7.862,5.229,12.646,5.229c4.784,0,9.278-1.858,12.646-5.229c3.368-3.371,5.228-7.861,5.228-12.646
		c0-4.786-1.859-9.28-5.228-12.648C1493.677,18.339,1482.329,18.339,1475.359,25.312z"/>
	<path fill="#FFFFFF" d="M1538.32,0H0v61.136h1457.353l7.464-7.463c-3.126-4.596-4.812-10.021-4.812-15.713
		c0-7.49,2.909-14.524,8.194-19.808c10.921-10.921,28.691-10.921,39.612,0c5.283,5.283,8.194,12.317,8.194,19.808
		s-2.911,14.522-8.194,19.806c-1.263,1.262-2.626,2.386-4.069,3.37h22.056L1538.32,0z"/>
	<path fill="#FFFFFF" d="M1457.353,61.136"/>
</g>
<path fill="#2CAFE2" d="M1471.535,24.684c-3.372,3.373-5.23,7.865-5.23,12.649c0,4.781,1.858,9.275,5.23,12.646
	c3.369,3.369,7.863,5.229,12.646,5.229s9.277-1.859,12.646-5.229c3.369-3.371,5.228-7.861,5.228-12.646
	c0-4.786-1.858-9.28-5.228-12.649C1489.854,17.712,1478.506,17.712,1471.535,24.684 M1503.988,17.525
	c5.283,5.283,8.194,12.318,8.194,19.808c0,7.489-2.911,14.521-8.194,19.806c-5.284,5.281-12.318,8.192-19.807,8.192
	c-5.456-0.002-10.666-1.551-15.135-4.43L1449.946,80l-7.956-7.954l19.002-19.001c-3.125-4.595-4.811-10.021-4.811-15.712
	c0-7.49,2.908-14.525,8.195-19.808C1475.297,6.604,1493.067,6.604,1503.988,17.525"/>
</svg>
