<?xml version="1.0" encoding="utf-8"?>
<!-- Generator: Adobe Illustrator 15.1.0, SVG Export Plug-In . SVG Version: 6.00 Build 0)  -->
<!DOCTYPE svg PUBLIC "-//W3C//DTD SVG 1.1//EN" "http://www.w3.org/Graphics/SVG/1.1/DTD/svg11.dtd">
<svg version="1.1" id="Ebene_1" xmlns="http://www.w3.org/2000/svg" xmlns:xlink="http://www.w3.org/1999/xlink" x="0px" y="0px"
	 width="365px" height="150px" viewBox="0 0 365 150" enable-background="new 0 0 365 150" xml:space="preserve">
<g>
	<defs>
		<rect id="SVGID_1_" width="364.171" height="150"/>
	</defs>
	<clipPath id="SVGID_2_">
		<use xlink:href="#SVGID_1_"  overflow="visible"/>
	</clipPath>
	<path clip-path="url(#SVGID_2_)" fill="#E5DFD6" d="M223.189,49.458v12.854h3.435v15.561h2.717l6.589-8.768h4.775l-7.781,10.293
		l5.229,7.328c0.617,0.865,1.235,1.029,2.181,1.029c0.413,0,0.782-0.043,0.824-0.043l0.071,2.906h6.146l11.016-41.161H223.189z
		 M234.488,88.621l-5.23-7.617h-2.634v9.615h9.568C235.591,90.129,235.06,89.457,234.488,88.621 M197.033,49.458v22.789
		c1.291-2.492,3.654-3.54,7.616-3.54c6.627,0,8.188,3.168,8.188,9.752c0,1.893-0.163,3.455-0.163,3.455h-12.838
		c0.04,4.938,1.604,6.172,5.347,6.172c4.075,0,7.079-0.738,7.079-0.738l0.164,3.168c0,0-0.134,0.041-0.378,0.104h9.354V49.458
		H197.033z M209.054,77.801c0-4.898-1.152-5.926-4.404-5.926c-3.619,0-4.938,1.153-4.938,7.407h9.3
		C209.054,78.746,209.054,78.254,209.054,77.801 M178.572,72.112c-2.019,0-3.913,0.618-4.737,0.99v17.517h8.815V78.373
		C182.65,73.142,181.619,72.112,178.572,72.112 M170.466,49.458v12.854h3.411v7.74c0.866-0.33,3.296-1.358,6.301-1.358
		c5.107,0,6.631,2.595,6.631,9.433v12.492h8.438V49.458H170.466z M75.294,0L64.266,41.161h19.437
		c-2.209-1.465-2.576-4.492-2.576-8.489V19.74h4.152v12.725c0,5.521,1.114,6.22,4.08,6.22c2.021,0,3.957-0.578,4.742-0.869V19.74
		h4.153v21.421h9.55V0H75.294z M109.591,0v19.74h2.477l0.411,1.314c0.783-0.371,3.709-1.728,6.922-1.728
		c5.601,0,6.547,3.332,6.547,9.428v12.406h9.257V0H109.591z M117.712,22.741c-2.019,0-3.957,0.616-4.739,0.946v17.474h8.819v-12.12
		C121.792,23.562,120.72,22.741,117.712,22.741 M136.991,0v13.401c0.319-0.065,0.754-0.088,1.356-0.088
		c2.181,0,2.181,0.288,2.181,1.852c0,1.438,0,1.728-2.181,1.728c-0.602,0-1.037-0.023-1.356-0.085v2.933h3.456v21.421h8.105V0
		H136.991z M150.34,0v19.74h2.475l4.117,12.065c1.525,4.486,1.853,7.492,1.853,7.492h0.206c0,0,0.289-3.006,1.813-7.535l4.12-12.022
		h4.117l-7.18,21.421h13.685V0H150.34z M150.34,24.646v16.515h5.538L150.34,24.646z M189.395,28.43c0-4.907-1.152-5.938-4.411-5.938
		c-3.625,0-4.942,1.157-4.942,7.422h9.312C189.395,29.375,189.395,28.882,189.395,28.43 M177.332,0v22.932
		c1.285-2.54,3.656-3.605,7.651-3.605c6.633,0,8.195,3.165,8.195,9.761c0,1.891-0.165,3.455-0.165,3.455h-12.85
		c0.042,4.947,1.605,6.183,5.357,6.183c4.08,0,7.081-0.741,7.081-0.741l0.167,3.169c0,0-0.014,0.004-0.025,0.008h9.362V0H177.332z
		 M203.895,0v19.74h2.464l0.494,1.727c0.699-0.536,2.882-2.14,5.849-2.14c1.029,0,2.018,0.165,2.018,0.165l-0.165,3.497
		c0,0-0.945-0.126-2.018-0.126c-2.718,0-4.489,1.03-5.147,1.566v16.732h14.086V0H203.895z M223.26,0v20.651
		c1.247-0.943,3.255-1.325,6.307-1.325c3.297,0,6.463,0.455,6.463,0.455l-0.083,3.288c0,0-2.837-0.369-5.558-0.369
		c-4.204,0-4.821,0.7-4.821,2.842c0,1.812,0.165,2.184,2.514,2.885l4.946,1.563c3.539,1.114,4.07,2.513,4.07,5.933
		c0,2.581-0.514,4.276-2.312,5.237h11.401V0H223.26z M230.429,32.918l-5.109-1.691c-0.869-0.293-1.536-0.598-2.06-0.947v8.241
		c1.205,0.093,3.01,0.203,4.821,0.203c4.452,0,4.946-0.739,4.946-2.84C233.027,34.071,232.82,33.699,230.429,32.918 M247.974,0v13.4
		c0.32-0.064,0.754-0.087,1.354-0.087c2.179,0,2.179,0.288,2.179,1.852c0,1.438,0,1.728-2.179,1.728
		c-0.601,0-1.034-0.023-1.354-0.084v2.932h3.453v21.421h9.556V0H247.974z M264.674,34.729V22.988h-1.904v18.172h3.675
		C265.099,40.082,264.674,38.046,264.674,34.729 M262.77,0v19.74h2.234l0.903-4.326h2.965v4.326h6.218v3.249h-6.218v11.865
		c0,3.253,0.655,3.871,2.511,3.871c1.894,0,4.118-0.411,4.118-0.411l0.111,2.847h8.209V0H262.77z M299.03,15.081
		c0-1.48,0-1.768-2.095-1.768c-2.058,0-2.101,0.288-2.101,1.768c0,1.44,0.043,1.729,2.101,1.729
		C299.03,16.81,299.03,16.521,299.03,15.081 M290.961,15.081c0-1.48-0.044-1.768-2.102-1.768c-2.097,0-2.137,0.288-2.137,1.768
		c0,1.44,0.04,1.729,2.137,1.729C290.917,16.81,290.961,16.521,290.961,15.081 M308.347,0v41.161h-8.122V27.563
		c0-5.687-1.107-8.237-8.275-8.237c-2.602,0-5.818,0.344-6.341,0.401V0H308.347z M291.208,22.741c-2.631,0-4.896,0.23-5.6,0.281
		v7.002c1.101-0.868,2.746-1.307,5.105-1.307c2.393,0,4.159,0.29,5.316,0.411v-1.77C296.03,23.771,295.535,22.741,291.208,22.741
		 M287.826,34.85v0.411v0.001c0,2.597,1.033,3.671,3.96,3.671c1.935,0,3.542-0.58,4.325-0.913v-6.3
		c-0.783-0.165-2.346-0.413-4.325-0.413C288.942,31.307,287.826,32.296,287.826,34.85 M310.135,0v19.74h2.211l0.905-4.326h2.963
		v4.326h6.218v3.249h-6.218v11.865c0,3.253,0.657,3.871,2.512,3.871c1.896,0,4.119-0.411,4.119-0.411l0.11,2.847h8.199V0H310.135z
		 M312.019,34.729V22.988h-1.884v18.172h3.652C312.442,40.082,312.019,38.046,312.019,34.729 M342.741,35.884
		c0-1.813-0.206-2.186-2.596-2.966l-5.11-1.691c-0.89-0.301-1.567-0.611-2.095-0.974v8.266c1.203,0.092,3.026,0.205,4.858,0.205
		C342.248,38.725,342.741,37.985,342.741,35.884 M339.279,19.326c3.301,0,6.465,0.455,6.465,0.455l-0.08,3.288
		c0,0-2.841-0.369-5.559-0.369c-4.206,0-4.821,0.7-4.821,2.842c0,1.812,0.165,2.184,2.515,2.885l4.942,1.563
		c3.539,1.114,4.075,2.513,4.075,5.933c0,2.581-0.516,4.276-2.313,5.237h19.668L356.913,0H332.94v20.683
		C334.184,19.717,336.197,19.326,339.279,19.326 M0,49.458l7.254,41.161h11.462V62.308h4.153v7.743
		c0.825-0.288,3.381-1.36,6.306-1.36c5.105,0,6.627,2.468,6.627,9.761v3.338c0,5.086-0.818,7.648-3.295,8.83h13.181V49.458H0z
		 M31.647,81.789v-2.805c0-6.138-1.111-6.878-4.08-6.878c-2.101,0-3.956,0.658-4.74,0.988v14.83
		c0.989,0.082,2.555,0.166,3.709,0.166C30.576,88.09,31.647,87.393,31.647,81.789 M47.476,49.458v13.306
		c0.319-0.062,0.75-0.086,1.344-0.086c2.18,0,2.18,0.288,2.18,1.851c0,1.44,0,1.73-2.18,1.73c-0.594,0-1.025-0.024-1.344-0.084
		v2.929h3.444v21.516h10.883V49.458H47.476z M63.59,49.458v12.85h3.432v7.743c0.824-0.288,3.38-1.36,6.305-1.36
		c5.106,0,6.626,2.468,6.626,9.761v3.338c0,5.029-0.798,7.592-3.209,8.791l12.325-0.035V49.383L63.59,49.458z M75.798,81.789v-2.805
		c0-6.138-1.112-6.878-4.079-6.878c-2.103,0-3.956,0.658-4.74,0.988v14.83c0.99,0.082,2.557,0.166,3.71,0.166
		C74.728,88.09,75.798,87.393,75.798,81.789 M90.855,49.383v12.924h3.474v28.255l10.833,0.057V49.458L90.855,49.383z
		 M106.948,49.458v13.312c0.323-0.066,0.762-0.093,1.376-0.093c2.182,0,2.182,0.288,2.182,1.851c0,1.44,0,1.73-2.182,1.73
		c-0.614,0-1.053-0.026-1.376-0.092v2.937h3.474v21.516h9.975V49.458H106.948z M134.602,80.1c0-6.841-0.451-7.994-4.821-7.994
		c-4.325,0-4.779,1.152-4.779,7.994c0,6.795,0.454,7.99,4.779,7.99C134.151,88.09,134.602,86.895,134.602,80.1 M122.184,49.458
		V71.72c1.218-2.179,3.487-3.03,7.598-3.03c7.579,0,8.937,2.796,8.937,11.409c0,5.961-0.656,9.129-3.571,10.52h10.669V49.458
		H122.184z M147.603,49.458v19.645h2.239l0.905-4.325h2.962v4.325h6.22v3.248h-6.22v11.866c0,3.256,0.658,3.873,2.513,3.873
		c1.893,0,4.118-0.412,4.118-0.412l0.115,2.941h8.225V49.458H147.603z M149.513,84.094V72.351h-1.91v18.268h4.322
		C150.262,89.566,149.513,87.508,149.513,84.094 M128.023,98.932l-11.05,41.162h20.151v-16.32h-2.267v-3.293h2.267v-1.855
		c0-4.863,2.055-7.248,6.21-7.248c2.679,0,5.109,0.656,5.109,0.656l-0.206,3.211c0,0-1.812-0.453-3.583-0.453
		c-2.181,0-3.335,0.703-3.335,3.875v1.814h6.26v3.293h-6.26v16.32h14.205V98.932H128.023z M157.312,98.932v19.656h2.463l0.495,1.725
		c0.699-0.537,2.88-2.137,5.847-2.137c1.03,0,2.021,0.164,2.021,0.164l-0.166,3.496c0,0-0.947-0.125-2.02-0.125
		c-2.717,0-4.489,1.031-5.147,1.564v16.818h13.402V98.932H157.312z M188.045,127.275c0-4.904-1.156-5.932-4.411-5.932
		c-3.627,0-4.944,1.152-4.944,7.414h9.312C188.045,128.225,188.045,127.73,188.045,127.275 M175.993,98.932v22.826
		c1.287-2.525,3.656-3.582,7.641-3.582c6.63,0,8.194,3.168,8.194,9.762c0,1.891-0.166,3.453-0.166,3.453h-12.848
		c0.04,4.945,1.607,6.184,5.356,6.184c4.079,0,7.081-0.744,7.081-0.744l0.165,3.17c0,0-0.119,0.037-0.338,0.094h10.485V98.932
		H175.993z M203.352,98.932v13.326c0.322-0.068,0.766-0.096,1.389-0.096c2.178,0,2.178,0.285,2.178,1.848c0,1.441,0,1.73-2.178,1.73
		c-0.623,0-1.066-0.025-1.389-0.092v2.939h3.484v21.506h10.798V98.932H203.352z M219.42,98.932v12.861h3.447v7.74
		c0.823-0.291,3.38-1.357,6.305-1.357c5.107,0,6.626,2.465,6.626,9.758v3.336c0,5.076-0.813,7.639-3.274,8.824h11.7V98.932H219.42z
		 M231.645,131.27v-2.801c0-6.139-1.112-6.883-4.079-6.883c-2.104,0-3.958,0.66-4.738,0.992v14.832
		c0.985,0.082,2.553,0.164,3.706,0.164C230.572,137.574,231.645,136.873,231.645,131.27 M246.009,98.932v19.656h3.424v12.725
		c0,5.518,1.114,6.223,4.079,6.223c2.02,0,3.955-0.58,4.741-0.873v-18.074h4.154v21.506h10.468V98.932H246.009z M274.661,98.932
		v19.656h2.454l0.492,1.725c0.701-0.537,2.884-2.137,5.849-2.137c1.028,0,2.018,0.164,2.018,0.164l-0.165,3.496
		c0,0-0.943-0.125-2.018-0.125c-2.718,0-4.49,1.031-5.149,1.564v16.818h13.021V98.932H274.661z M300.282,130.654
		c4.286,0,4.782-0.949,4.782-4.779c0-3.793-0.496-4.867-4.782-4.867s-4.738,1.074-4.738,4.867
		C295.544,129.705,295.996,130.654,300.282,130.654 M292.948,131.037v8.516c0.992-0.719,2.157-0.867,2.474-0.912v-0.043
		c-0.411-0.121-1.686-0.822-1.686-2.713c0-1.568,0.821-2.643,1.933-2.93v-0.082C294.688,132.668,293.697,132.119,292.948,131.037
		 M292.948,120.43V98.932h23.706l7.236,41.162h-14.214c-0.613-2.488-2.774-3.469-8.364-3.469h-1.647c-1.896,0-2.35-0.617-2.35-1.648
		c0-1.072,0.495-1.689,2.391-1.689h1.483c5.686,0,7.783-1.688,7.783-7.371c0-4.451-0.784-6.676-5.021-7.416l1.113-3.867h-3.71
		l-0.945,3.664c-0.538-0.039-0.991,0-1.404,0C295.881,118.385,294.017,119.049,292.948,120.43"/>
	<path clip-path="url(#SVGID_2_)" fill="#FFFFFF" d="M220.128,93.309h4.155V83.217h2.638l5.229,7.623
		c1.236,1.812,2.265,2.879,4.284,2.879c1.359,0,2.471-0.41,2.471-0.41l-0.081-3.379c-0.04,0.01-0.412,0.045-0.824,0.045
		c-0.949,0-1.565-0.16-2.183-1.027l-5.232-7.332l7.784-10.295h-4.777l-6.589,8.772h-2.719V64.522h-4.155V93.309z M206.872,81.494
		h-9.314c0-6.266,1.318-7.42,4.946-7.42c3.254,0,4.411,1.031,4.411,5.936C206.915,80.461,206.915,80.957,206.872,81.494
		 M210.696,80.668c0-6.594-1.562-9.761-8.192-9.761c-6.839,0-8.934,3.084-8.934,11.408c0,8.609,2.344,11.404,8.85,11.404
		c4.618,0,7.867-0.984,7.867-0.984l-0.165-3.17c0,0-3.001,0.74-7.081,0.74c-3.752,0-5.318-1.234-5.358-6.184h12.848
		C210.53,84.121,210.696,82.564,210.696,80.668 M167.488,93.309h4.113v-18c0.825-0.368,2.719-0.987,4.738-0.987
		c3.05,0,4.079,1.03,4.079,6.259v12.729h4.156V80.334c0-6.835-1.522-9.427-6.628-9.427c-3.007,0-5.44,1.028-6.306,1.358v-7.743
		h-4.153V93.309z M16.465,93.268c0,0,4.855,0.451,8.109,0.451c7.045,0,8.978-1.848,8.978-9.715v-3.336
		c0-7.294-1.522-9.761-6.628-9.761c-2.925,0-5.48,1.07-6.306,1.358v-7.743h-4.152V93.268z M20.577,90.141V75.31
		c0.784-0.331,2.639-0.989,4.74-0.989c2.968,0,4.08,0.74,4.08,6.88v2.803c0,5.604-1.071,6.301-5.11,6.301
		C23.132,90.305,21.565,90.223,20.577,90.141 M46.569,68.473c2.179,0,2.179-0.29,2.179-1.73c0-1.561,0-1.849-2.179-1.849
		c-2.181,0-2.223,0.288-2.223,1.849C44.347,68.184,44.389,68.473,46.569,68.473 M44.47,93.309h4.198V71.32H44.47V93.309z
		 M60.616,93.268c0,0,4.854,0.451,8.11,0.451c7.044,0,8.975-1.848,8.975-9.715v-3.336c0-7.294-1.519-9.761-6.626-9.761
		c-2.925,0-5.48,1.07-6.304,1.358v-7.743h-4.155V93.268z M64.729,90.141V75.31c0.784-0.331,2.638-0.989,4.74-0.989
		c2.966,0,4.079,0.74,4.079,6.88v2.803c0,5.604-1.07,6.301-5.108,6.301C67.285,90.305,65.717,90.223,64.729,90.141 M87.881,93.309
		h4.197V64.522h-4.197V93.309z M106.073,68.473c2.181,0,2.181-0.29,2.181-1.73c0-1.561,0-1.849-2.181-1.849
		c-2.18,0-2.222,0.288-2.222,1.849C103.851,68.184,103.893,68.473,106.073,68.473 M103.975,93.309h4.196V71.32h-4.196V93.309z
		 M127.53,93.719c7.579,0,8.936-2.795,8.936-11.404c0-8.611-1.357-11.408-8.936-11.408c-7.497,0-8.893,2.797-8.893,11.408
		C118.638,90.924,120.033,93.719,127.53,93.719 M127.53,90.305c-4.326,0-4.78-1.193-4.78-7.99c0-6.841,0.454-7.994,4.78-7.994
		c4.37,0,4.821,1.152,4.821,7.994C132.351,89.111,131.9,90.305,127.53,90.305 M147.263,86.311c0,5.395,1.861,7.408,6.264,7.408
		c2.759,0,4.686-0.656,4.686-0.656l-0.124-3.17c0,0-2.225,0.412-4.118,0.412c-1.855,0-2.512-0.615-2.512-3.871V74.568h6.218V71.32
		h-6.218v-4.327h-2.963l-0.905,4.327h-3.213v3.248h2.885V86.311z M78.875,34.888c0,5.724,0.741,9.467,6.585,9.467
		c3.257,0,6.1-1.398,6.883-1.686l0.411,1.275h3.249v-21.99H91.85v18.077c-0.785,0.292-2.72,0.869-4.741,0.869
		c-2.966,0-4.08-0.699-4.08-6.22V21.954h-4.154V34.888z M106.608,43.944h4.114V25.903c0.782-0.331,2.72-0.946,4.738-0.946
		c3.01,0,4.082,0.822,4.082,6.3v12.688h4.154V30.97c0-6.096-0.946-9.428-6.546-9.428c-3.214,0-6.139,1.356-6.922,1.728l-0.412-1.316
		h-3.208V43.944z M136.097,19.108c2.181,0,2.181-0.289,2.181-1.728c0-1.564,0-1.852-2.181-1.852s-2.223,0.288-2.223,1.852
		C133.874,18.819,133.916,19.108,136.097,19.108 M133.999,43.944h4.198v-21.99h-4.198V43.944z M153.816,43.944h5.602l7.373-21.99
		h-4.118l-4.12,12.023c-1.525,4.529-1.812,7.535-1.812,7.535h-0.207c0,0-0.328-3.006-1.853-7.492l-4.118-12.066h-4.12
		L153.816,43.944z M177.913,34.758h12.85c0,0,0.166-1.563,0.166-3.454c0-6.597-1.563-9.762-8.196-9.762
		c-6.834,0-8.935,3.084-8.935,11.406c0,8.61,2.347,11.406,8.855,11.406c4.615,0,7.865-0.986,7.865-0.986l-0.165-3.169
		c0,0-3.002,0.741-7.082,0.741C179.521,40.94,177.954,39.704,177.913,34.758 M177.789,32.129c0-6.265,1.319-7.422,4.943-7.422
		c3.258,0,4.41,1.03,4.41,5.937c0,0.454,0,0.947-0.041,1.485H177.789z M200.901,43.944h4.236v-17.3
		c0.657-0.535,2.429-1.565,5.147-1.565c1.072,0,2.018,0.125,2.018,0.125l0.166-3.497c0,0-0.99-0.165-2.019-0.165
		c-2.966,0-5.149,1.604-5.848,2.139l-0.493-1.727h-3.208V43.944z M219.49,43.862c0,0,3.373,0.493,7.205,0.493
		c6.714,0,8.151-1.851,8.151-6.215c0-3.42-0.533-4.818-4.069-5.932l-4.947-1.564c-2.348-0.702-2.514-1.074-2.514-2.885
		c0-2.143,0.617-2.843,4.821-2.843c2.72,0,5.558,0.369,5.558,0.369l0.083-3.288c0,0-3.166-0.455-6.463-0.455
		c-6.099,0-8.031,1.522-8.031,6.008c0,3.543,0.493,4.782,3.783,5.893l5.11,1.69c2.392,0.781,2.6,1.153,2.6,2.966
		c0,2.101-0.495,2.84-4.947,2.84c-3.134,0-6.258-0.329-6.258-0.329L219.49,43.862z M247.077,19.108c2.18,0,2.18-0.289,2.18-1.728
		c0-1.564,0-1.852-2.18-1.852c-2.181,0-2.222,0.288-2.222,1.852C244.855,18.819,244.896,19.108,247.077,19.108 M244.979,43.944
		h4.195v-21.99h-4.195V43.944z M262.425,36.945c0,5.396,1.107,7.409,5.513,7.409c2.76,0,5.437-0.658,5.437-0.658l-0.125-3.168
		c0,0-2.223,0.412-4.117,0.412c-1.855,0-2.513-0.618-2.513-3.871V25.204h6.22v-3.25h-6.22v-4.325h-2.963l-0.903,4.325h-3.213v3.25
		h2.885V36.945z M281.506,37.933c0,4.818,2.673,6.421,6.378,6.421c3.138,0,5.647-1.273,6.431-1.603l0.412,1.193h3.247V29.779
		c0-5.686-1.107-8.237-8.274-8.237c-2.844,0-6.426,0.411-6.426,0.411v3.29c0.617-0.039,2.963-0.287,5.684-0.287
		c4.327,0,4.823,1.029,4.823,4.617v1.769c-1.157-0.121-2.925-0.411-5.316-0.411c-5.19,0-6.958,2.097-6.958,6.299V37.933z
		 M285.576,37.476v-0.411c0-2.554,1.115-3.542,3.959-3.542c1.979,0,3.542,0.248,4.325,0.413v6.3
		c-0.783,0.333-2.389,0.912-4.325,0.912c-2.927,0-3.959-1.074-3.959-3.671V37.476z M294.685,19.025c2.095,0,2.095-0.289,2.095-1.729
		c0-1.48,0-1.768-2.095-1.768c-2.058,0-2.101,0.288-2.101,1.768C292.584,18.737,292.627,19.025,294.685,19.025 M286.608,19.025
		c2.059,0,2.102-0.289,2.102-1.729c0-1.48-0.043-1.768-2.102-1.768c-2.096,0-2.137,0.288-2.137,1.768
		C284.472,18.737,284.513,19.025,286.608,19.025 M309.768,36.945c0,5.396,1.11,7.409,5.514,7.409c2.757,0,5.437-0.658,5.437-0.658
		l-0.124-3.168c0,0-2.223,0.412-4.118,0.412c-1.856,0-2.515-0.618-2.515-3.871V25.204h6.22v-3.25h-6.22v-4.325h-2.962l-0.904,4.325
		h-3.21v3.25h2.883V36.945z M329.207,43.862c0,0,3.371,0.493,7.205,0.493c6.713,0,8.153-1.851,8.153-6.215
		c0-3.42-0.535-4.818-4.075-5.932l-4.943-1.564c-2.349-0.702-2.514-1.074-2.514-2.885c0-2.143,0.615-2.843,4.821-2.843
		c2.718,0,5.559,0.369,5.559,0.369l0.08-3.288c0,0-3.164-0.455-6.465-0.455c-6.096,0-8.026,1.522-8.026,6.008
		c0,3.543,0.491,4.782,3.782,5.893l5.11,1.69c2.39,0.781,2.596,1.153,2.596,2.966c0,2.101-0.492,2.84-4.943,2.84
		c-3.134,0-6.258-0.329-6.258-0.329L329.207,43.862z M134.873,142.791h4.196v-16.803h6.259v-3.293h-6.259v-1.812
		c0-3.174,1.153-3.877,3.336-3.877c1.77,0,3.583,0.455,3.583,0.455l0.206-3.211c0,0-2.431-0.658-5.108-0.658
		c-4.156,0-6.213,2.387-6.213,7.248v1.855h-2.265v3.293h2.265V142.791z M154.316,142.791h4.237V125.49
		c0.659-0.535,2.43-1.564,5.147-1.564c1.07,0,2.019,0.125,2.019,0.125l0.166-3.496c0,0-0.992-0.164-2.02-0.164
		c-2.967,0-5.147,1.602-5.848,2.139l-0.494-1.727h-3.208V142.791z M176.563,133.607h12.848c0,0,0.165-1.562,0.165-3.455
		c0-6.594-1.563-9.762-8.193-9.762c-6.837,0-8.935,3.084-8.935,11.404c0,8.611,2.345,11.408,8.853,11.408
		c4.614,0,7.864-0.988,7.864-0.988l-0.164-3.17c0,0-3.002,0.746-7.081,0.746C178.17,139.791,176.604,138.553,176.563,133.607
		 M176.438,130.975c0-6.264,1.317-7.416,4.944-7.416c3.255,0,4.411,1.027,4.411,5.934c0,0.453,0,0.949-0.044,1.482H176.438z
		 M202.488,117.957c2.179,0,2.179-0.289,2.179-1.732c0-1.561,0-1.846-2.179-1.846c-2.18,0-2.221,0.285-2.221,1.846
		C200.268,117.668,200.309,117.957,202.488,117.957 M200.391,142.791h4.195v-21.988h-4.195V142.791z M216.461,142.748
		c0,0,4.855,0.455,8.11,0.455c7.042,0,8.976-1.852,8.976-9.717v-3.338c0-7.291-1.519-9.758-6.625-9.758
		c-2.926,0-5.482,1.068-6.306,1.359v-7.742h-4.155V142.748z M220.575,139.625v-14.83c0.781-0.332,2.637-0.994,4.738-0.994
		c2.969,0,4.081,0.744,4.081,6.885v2.801c0,5.602-1.073,6.305-5.111,6.305C223.129,139.791,221.562,139.707,220.575,139.625
		 M243.025,133.732c0,5.727,0.742,9.471,6.589,9.471c3.254,0,6.098-1.402,6.879-1.686l0.414,1.273h3.249v-21.988h-4.154v18.076
		c-0.786,0.291-2.721,0.871-4.741,0.871c-2.966,0-4.079-0.705-4.079-6.223v-12.725h-4.156V133.732z M271.654,142.791h4.237V125.49
		c0.658-0.535,2.432-1.564,5.149-1.564c1.072,0,2.016,0.125,2.016,0.125l0.165-3.496c0,0-0.988-0.164-2.016-0.164
		c-2.966,0-5.149,1.602-5.851,2.139l-0.492-1.727h-3.209V142.791z M289.18,144.975c0,3.588,1.523,5.025,9.058,5.025
		c6.716,0,9.39-1.195,9.39-5.723c0-3.953-1.686-5.438-8.564-5.438h-1.648c-1.896,0-2.349-0.615-2.349-1.648
		c0-1.072,0.494-1.689,2.389-1.689h1.483c5.687,0,7.784-1.686,7.784-7.369c0-4.455-0.784-6.678-5.021-7.418l1.112-3.865h-3.71
		l-0.946,3.662c-0.536-0.039-0.99,0-1.403,0c-5.889,0.166-7.326,2.346-7.326,7.621c0,4.736,2.016,6.543,3.991,6.955v0.082
		c-1.112,0.289-1.933,1.361-1.933,2.93c0,1.893,1.273,2.594,1.686,2.715v0.041C292.595,140.939,289.18,141.352,289.18,144.975
		 M298.031,132.869c-4.286,0-4.739-0.949-4.739-4.779c0-3.791,0.453-4.865,4.739-4.865s4.782,1.074,4.782,4.865
		C302.813,131.92,302.317,132.869,298.031,132.869 M292.923,144.482c0-2.143,0.865-2.682,5.399-2.682
		c4.818,0,5.354,0.662,5.354,2.682c0,1.939-0.535,2.678-5.358,2.678C293.502,147.16,292.923,146.422,292.923,144.482"/>
</g>
</svg>
