<?xml version="1.0" encoding="utf-8"?>
<!-- Generator: Adobe Illustrator 15.1.0, SVG Export Plug-In . SVG Version: 6.00 Build 0)  -->
<!DOCTYPE svg PUBLIC "-//W3C//DTD SVG 1.1//EN" "http://www.w3.org/Graphics/SVG/1.1/DTD/svg11.dtd">
<svg version="1.1" id="Ebene_1" xmlns="http://www.w3.org/2000/svg" xmlns:xlink="http://www.w3.org/1999/xlink" x="0px" y="0px"
	 width="49.21px" height="70px" viewBox="0 0 49.21 70" enable-background="new 0 0 49.21 70" xml:space="preserve">
<g>
	<defs>
		<rect id="SVGID_1_" width="49.211" height="70"/>
	</defs>
	<clipPath id="SVGID_2_">
		<use xlink:href="#SVGID_1_"  overflow="visible"/>
	</clipPath>
	<g clip-path="url(#SVGID_2_)">
		<defs>
			<rect id="SVGID_3_" y="0.001" width="49.211" height="69.999"/>
		</defs>
		<clipPath id="SVGID_4_">
			<use xlink:href="#SVGID_3_"  overflow="visible"/>
		</clipPath>
		<path clip-path="url(#SVGID_4_)" fill="#B2B2B2" d="M35.648,0h-4.914v2.557h3.229c0.119,0.357,0.179,0.792,0.179,1.228
			c0,1.685-1.09,2.834-3.071,2.834c-2.042,0-3.191-1.328-3.191-3.131c0-0.99,0.198-1.901,0.575-2.814l-2.199-0.475
			c-0.356,1.111-0.517,2.239-0.517,3.349c0,3.646,2.458,5.786,5.529,5.786c3.408,0,5.133-2.279,5.133-5.329
			C36.401,2.537,36.124,1.229,35.648,0 M29.089,12.924c0.854,0,1.427,0.635,1.427,1.625c0,0.278,0,0.594-0.039,0.854h-2.636
			c-0.02-0.239-0.039-0.496-0.039-0.774C27.802,13.577,28.276,12.924,29.089,12.924 M36.223,9.654l-3.329,2.279
			c-0.437,0.297-0.852,0.575-1.129,0.773c-0.357-1.486-1.348-2.497-2.934-2.497c-2.002,0-2.972,1.506-2.972,4.042
			c0,1.308,0.021,2.874,0.06,3.705h10.304v-2.555H32.2v-0.101l4.022-2.536V9.654z M32.239,20.097h-6.32v2.517h6.004
			c1.485,0,2.358,0.614,2.358,2.179c0,1.447-0.675,2.2-2.26,2.2h-6.103v2.556h6.677c2.339,0,3.806-1.485,3.806-4.617
			C36.401,21.544,34.538,20.097,32.239,20.097 M33.014,33.959c0.852,0,1.425,0.576,1.425,1.824c0,0.396-0.019,0.792-0.059,1.089
			h-2.636c-0.019-0.257-0.019-0.652-0.019-0.871C31.726,34.713,32.102,33.959,33.014,33.959 M28.811,34.118
			c0.893,0,1.329,0.812,1.329,2.021c0,0.139,0,0.436-0.021,0.732h-2.456c0-0.336-0.021-0.753-0.021-1.069
			C27.643,34.515,28.118,34.118,28.811,34.118 M33.014,31.265c-1.111,0-1.983,0.576-2.3,1.724h-0.019
			c-0.397-1.03-1.27-1.585-2.261-1.585c-1.624,0-2.575,1.129-2.575,3.903c0,1.367,0.06,3.053,0.06,4.102h10.379v-3.685
			C36.298,32.335,34.558,31.265,33.014,31.265 M36.298,41.511H25.884l-0.004,2.747h10.418V41.511z M36.298,46.106h-2.115v3.785
			h-2.26v-3.606h-1.941v3.606H27.92v-3.785h-2.001v6.342h10.379V46.106z M29.089,56.932c0.854,0,1.427,0.635,1.427,1.625
			c0,0.277,0,0.595-0.039,0.853h-2.636c-0.02-0.238-0.039-0.496-0.039-0.772C27.802,57.586,28.276,56.932,29.089,56.932
			 M36.298,53.662l-3.404,2.279c-0.437,0.297-0.852,0.574-1.129,0.773c-0.357-1.486-1.348-2.497-2.934-2.497
			c-2.002,0-2.972,1.505-2.972,4.042c0,1.308,0.021,2.873,0.06,3.705h10.379v-2.556H32.2v-0.1l4.098-2.537V53.662z M27.92,63.475
			h-2.001v6.241h10.379V67.16H32.12v-3.488h-1.961v3.488H27.92V63.475z"/>
		<path clip-path="url(#SVGID_4_)" fill="#B2B2B2" d="M23.324,41.511H12.942l-0.005,2.731h10.389L23.324,41.511z M23.322,47.546
			H12.93v2.498l4.376-0.021c1.079,0,1.939-0.02,2.559-0.06v0.021c-0.7,0.32-1.359,0.679-1.979,1.079l-4.956,3.018v3.457h10.393
			v-2.478h-5.137c-0.819,0-1.338,0.02-1.837,0.059V55.1c0.58-0.26,1.318-0.619,1.898-0.979l5.076-3.116V47.546z M19.305,60.468
			H12.93v2.538h6.056c1.498,0,2.377,0.619,2.377,2.198c0,1.459-0.679,2.219-2.278,2.219H12.93V70h6.734
			c2.36,0,3.838-1.499,3.838-4.656C23.502,61.927,21.623,60.468,19.305,60.468"/>
		<g clip-path="url(#SVGID_4_)">
			<g>
				<defs>
					<rect id="SVGID_5_" x="37.806" y="40.501" width="12.414" height="4.737"/>
				</defs>
				<clipPath id="SVGID_6_">
					<use xlink:href="#SVGID_5_"  overflow="visible"/>
				</clipPath>
				<rect x="38.815" y="41.512" clip-path="url(#SVGID_6_)" fill="#B2B2B2" width="10.396" height="2.718"/>
			</g>
		</g>
		<g clip-path="url(#SVGID_4_)">
			<g>
				<defs>
					<rect id="SVGID_7_" x="-1.009" y="40.501" width="12.46" height="4.737"/>
				</defs>
				<clipPath id="SVGID_8_">
					<use xlink:href="#SVGID_7_"  overflow="visible"/>
				</clipPath>
				<polygon clip-path="url(#SVGID_8_)" fill="#B2B2B2" points="10.434,41.511 0,41.511 0,44.229 10.441,44.229 				"/>
			</g>
		</g>
	</g>
</g>
</svg>
